<?xml version="1.0" standalone="no"?>
<!DOCTYPE svg PUBLIC "-//W3C//DTD SVG 20010904//EN"
 "http://www.w3.org/TR/2001/REC-SVG-20010904/DTD/svg10.dtd">
<svg version="1.0" xmlns="http://www.w3.org/2000/svg"
 width="700.000000pt" height="700.000000pt" viewBox="0 0 700.000000 700.000000"
 preserveAspectRatio="xMidYMid meet">
<metadata>
Created by potrace 1.11, written by Peter Selinger 2001-2013
</metadata>
<g transform="translate(0.000000,700.000000) scale(0.100000,-0.100000)"
fill="#000000" stroke="none">
<path d="M2699 6996 c-2 -2 -24 -6 -49 -9 -241 -29 -499 -153 -680 -329 -49
-46 -148 -163 -165 -193 -9 -14 -27 -18 -110 -20 -329 -10 -585 -116 -835
-347 -38 -35 -133 -147 -167 -198 -91 -136 -170 -332 -187 -467 -4 -26 -10
-57 -13 -68 -4 -11 -7 -427 -8 -925 -1 -965 -2 -949 48 -1050 33 -67 114 -143
193 -181 63 -30 77 -33 164 -34 52 0 109 4 125 8 l31 8 0 -1293 c0 -1002 3
-1305 13 -1348 62 -273 259 -472 526 -534 63 -14 220 -15 1540 -13 l1470 2 76
27 c114 40 196 92 282 180 61 63 86 98 121 171 62 128 73 195 73 470 1 126 4
231 7 235 4 3 181 7 394 8 213 1 397 4 410 7 200 50 358 160 454 319 52 84 77
152 95 258 4 19 7 595 7 1280 l0 1245 -23 80 c-59 211 -187 363 -378 451 -123
57 -168 61 -583 63 -206 1 -376 4 -379 6 -2 3 -4 95 -4 206 l0 201 41 35 c84
70 159 185 203 314 28 82 34 245 14 341 -52 244 -236 438 -485 513 -105 31
-248 28 -401 -10 -21 -6 -30 -1 -54 32 -128 170 -326 271 -535 274 -85 1 -153
-9 -216 -31 l-52 -18 -53 45 c-137 114 -326 214 -469 248 -8 2 -46 11 -85 20
-60 15 -345 31 -356 21z m2992 -3028 c4 -42 3 -2048 -1 -2049 -3 -1 -125 -2
-272 -3 -179 -1 -268 2 -269 9 -1 13 -1 2026 0 2043 1 9 62 12 271 12 209 0
270 -3 271 -12z"/>
</g>
</svg>
